<svg width="154" height="73" viewBox="0 0 154 73" fill="none" xmlns="http://www.w3.org/2000/svg">
<g filter="url(#filter0_d_112_49)">
<rect x="10" y="0.500244" width="134" height="52" rx="26" fill="#FF5331"/>
<path d="M42.9886 26.9548C42.9886 28.3653 42.7244 29.5734 42.196 30.5791C41.6719 31.5805 40.956 32.3475 40.0483 32.8802C39.1449 33.4129 38.12 33.6792 36.9737 33.6792C35.8274 33.6792 34.8004 33.4129 33.8928 32.8802C32.9893 32.3433 32.2734 31.5741 31.745 30.5727C31.2209 29.567 30.9588 28.361 30.9588 26.9548C30.9588 25.5443 31.2209 24.3383 31.745 23.3369C32.2734 22.3312 32.9893 21.562 33.8928 21.0294C34.8004 20.4967 35.8274 20.2304 36.9737 20.2304C38.12 20.2304 39.1449 20.4967 40.0483 21.0294C40.956 21.562 41.6719 22.3312 42.196 23.3369C42.7244 24.3383 42.9886 25.5443 42.9886 26.9548ZM40.6044 26.9548C40.6044 25.9619 40.4489 25.1245 40.1378 24.4427C39.831 23.7566 39.4048 23.2389 38.8594 22.8894C38.3139 22.5358 37.6854 22.3589 36.9737 22.3589C36.2621 22.3589 35.6335 22.5358 35.0881 22.8894C34.5426 23.2389 34.1143 23.7566 33.8033 24.4427C33.4964 25.1245 33.343 25.9619 33.343 26.9548C33.343 27.9477 33.4964 28.7872 33.8033 29.4733C34.1143 30.1551 34.5426 30.6728 35.0881 31.0265C35.6335 31.376 36.2621 31.5507 36.9737 31.5507C37.6854 31.5507 38.3139 31.376 38.8594 31.0265C39.4048 30.6728 39.831 30.1551 40.1378 29.4733C40.4489 28.7872 40.6044 27.9477 40.6044 26.9548ZM45.1284 33.5002V23.6821H47.372V25.3184H47.4743C47.6532 24.7517 47.96 24.3149 48.3947 24.0081C48.8336 23.697 49.3343 23.5414 49.8968 23.5414C50.0247 23.5414 50.1674 23.5478 50.3251 23.5606C50.487 23.5691 50.6213 23.5841 50.7278 23.6054V25.7339C50.6298 25.6998 50.4743 25.67 50.2612 25.6444C50.0524 25.6146 49.85 25.5997 49.6539 25.5997C49.2321 25.5997 48.8528 25.6913 48.5162 25.8745C48.1838 26.0535 47.9217 26.3028 47.7299 26.6224C47.5382 26.942 47.4423 27.3106 47.4423 27.7282V33.5002H45.1284ZM55.5043 33.6728C54.733 33.6728 54.0426 33.4747 53.4332 33.0784C52.8239 32.6821 52.3423 32.1068 51.9886 31.3525C51.6349 30.5983 51.4581 29.6821 51.4581 28.6039C51.4581 27.513 51.6371 26.5926 51.995 25.8426C52.3572 25.0883 52.8452 24.5194 53.4588 24.1359C54.0724 23.7481 54.7564 23.5542 55.5107 23.5542C56.0859 23.5542 56.5589 23.6522 56.9297 23.8483C57.3004 24.04 57.5945 24.2723 57.8118 24.545C58.0291 24.8135 58.1974 25.067 58.3168 25.3056H58.4126V20.4093H60.733V33.5002H58.4574V31.9534H58.3168C58.1974 32.192 58.0249 32.4456 57.799 32.714C57.5732 32.9782 57.2749 33.2041 56.9041 33.3916C56.5334 33.5791 56.0668 33.6728 55.5043 33.6728ZM56.1499 31.7744C56.6399 31.7744 57.0575 31.6423 57.4027 31.3781C57.7479 31.1096 58.0099 30.7367 58.1889 30.2595C58.3679 29.7822 58.4574 29.2261 58.4574 28.5912C58.4574 27.9562 58.3679 27.4044 58.1889 26.9356C58.0142 26.4669 57.7543 26.1025 57.4091 25.8426C57.0682 25.5826 56.6484 25.4527 56.1499 25.4527C55.6342 25.4527 55.2038 25.5869 54.8587 25.8554C54.5135 26.1238 54.2536 26.4946 54.0788 26.9676C53.9041 27.4406 53.8168 27.9818 53.8168 28.5912C53.8168 29.2048 53.9041 29.7524 54.0788 30.2339C54.2578 30.7112 54.5199 31.0883 54.8651 31.3653C55.2145 31.638 55.6428 31.7744 56.1499 31.7744ZM67.5453 33.692C66.5609 33.692 65.7108 33.4875 64.9949 33.0784C64.2832 32.665 63.7356 32.0812 63.3521 31.3269C62.9686 30.5684 62.7768 29.6757 62.7768 28.6487C62.7768 27.6387 62.9686 26.7524 63.3521 25.9896C63.7399 25.2225 64.2811 24.626 64.9757 24.1998C65.6703 23.7694 66.4863 23.5542 67.4238 23.5542C68.0289 23.5542 68.6 23.6522 69.1369 23.8483C69.6781 24.04 70.1554 24.3383 70.5687 24.7431C70.9863 25.148 71.3145 25.6636 71.5531 26.29C71.7917 26.9122 71.911 27.6537 71.911 28.5144V29.224H63.8635V27.6643H69.693C69.6887 27.2211 69.5929 26.8269 69.4054 26.4818C69.2179 26.1323 68.9558 25.8575 68.6191 25.6572C68.2868 25.4569 67.899 25.3568 67.4558 25.3568C66.9828 25.3568 66.5673 25.4718 66.2093 25.7019C65.8514 25.9278 65.5723 26.2261 65.372 26.5968C65.176 26.9633 65.0758 27.366 65.0716 27.8049V29.1664C65.0716 29.7375 65.176 30.2275 65.3848 30.6366C65.5936 31.0414 65.8855 31.3525 66.2605 31.5698C66.6355 31.7829 67.0744 31.8894 67.5772 31.8894C67.9139 31.8894 68.2186 31.8426 68.4913 31.7488C68.764 31.6508 69.0005 31.5081 69.2008 31.3206C69.4011 31.1331 69.5524 30.9008 69.6547 30.6238L71.8152 30.8667C71.6788 31.4377 71.4189 31.9363 71.0353 32.3625C70.6561 32.7843 70.1703 33.1125 69.5779 33.3468C68.9856 33.5769 68.3081 33.692 67.5453 33.692ZM73.8686 33.5002V23.6821H76.1122V25.3184H76.2145C76.3935 24.7517 76.7003 24.3149 77.1349 24.0081C77.5739 23.697 78.0746 23.5414 78.6371 23.5414C78.7649 23.5414 78.9077 23.5478 79.0653 23.5606C79.2273 23.5691 79.3615 23.5841 79.468 23.6054V25.7339C79.37 25.6998 79.2145 25.67 79.0014 25.6444C78.7926 25.6146 78.5902 25.5997 78.3942 25.5997C77.9723 25.5997 77.593 25.6913 77.2564 25.8745C76.924 26.0535 76.6619 26.3028 76.4702 26.6224C76.2784 26.942 76.1825 27.3106 76.1825 27.7282V33.5002H73.8686ZM96.3303 20.4093V33.5002H94.2209L88.0526 24.5833H87.9439V33.5002H85.5724V20.4093H87.6946L93.8565 29.3326H93.9716V20.4093H96.3303ZM103.095 33.692C102.136 33.692 101.305 33.4811 100.602 33.0592C99.8986 32.6373 99.3532 32.0471 98.9654 31.2886C98.5819 30.5301 98.3901 29.6437 98.3901 28.6295C98.3901 27.6153 98.5819 26.7268 98.9654 25.964C99.3532 25.2012 99.8986 24.6089 100.602 24.187C101.305 23.7652 102.136 23.5542 103.095 23.5542C104.053 23.5542 104.884 23.7652 105.588 24.187C106.291 24.6089 106.834 25.2012 107.218 25.964C107.605 26.7268 107.799 27.6153 107.799 28.6295C107.799 29.6437 107.605 30.5301 107.218 31.2886C106.834 32.0471 106.291 32.6373 105.588 33.0592C104.884 33.4811 104.053 33.692 103.095 33.692ZM103.107 31.8383C103.627 31.8383 104.062 31.6956 104.411 31.41C104.761 31.1203 105.021 30.7325 105.191 30.2467C105.366 29.7609 105.453 29.2197 105.453 28.6231C105.453 28.0223 105.366 27.4789 105.191 26.9931C105.021 26.5031 104.761 26.1132 104.411 25.8234C104.062 25.5336 103.627 25.3887 103.107 25.3887C102.575 25.3887 102.132 25.5336 101.778 25.8234C101.428 26.1132 101.166 26.5031 100.992 26.9931C100.821 27.4789 100.736 28.0223 100.736 28.6231C100.736 29.2197 100.821 29.7609 100.992 30.2467C101.166 30.7325 101.428 31.1203 101.778 31.41C102.132 31.6956 102.575 31.8383 103.107 31.8383ZM111.508 33.5002L108.734 23.6821H111.093L112.819 30.5855H112.908L114.672 23.6821H117.005L118.77 30.5471H118.865L120.566 23.6821H122.931L120.15 33.5002H117.74L115.9 26.8653H115.765L113.924 33.5002H111.508Z" fill="white"/>
</g>
<defs>
<filter id="filter0_d_112_49" x="0" y="0.500244" width="154" height="72" filterUnits="userSpaceOnUse" color-interpolation-filters="sRGB">
<feFlood flood-opacity="0" result="BackgroundImageFix"/>
<feColorMatrix in="SourceAlpha" type="matrix" values="0 0 0 0 0 0 0 0 0 0 0 0 0 0 0 0 0 0 127 0" result="hardAlpha"/>
<feMorphology radius="10" operator="erode" in="SourceAlpha" result="effect1_dropShadow_112_49"/>
<feOffset dy="10"/>
<feGaussianBlur stdDeviation="10"/>
<feColorMatrix type="matrix" values="0 0 0 0 0.916667 0 0 0 0 0.916667 0 0 0 0 0.916667 0 0 0 0.4 0"/>
<feBlend mode="normal" in2="BackgroundImageFix" result="effect1_dropShadow_112_49"/>
<feBlend mode="normal" in="SourceGraphic" in2="effect1_dropShadow_112_49" result="shape"/>
</filter>
</defs>
</svg>
